<svg width="208" height="40" viewBox="0 0 208 40" fill="none" xmlns="http://www.w3.org/2000/svg">
<path fill-rule="evenodd" clip-rule="evenodd" d="M7.16039 4V16.6969H11.3927V4H7.16039ZM18.5347 4V23.0454H22.767V4H18.5347ZM30.1736 16.6969V4H34.4059V16.6969H30.1736ZM20.6509 36C12.5662 36 5.76506 30.5046 3.77905 23.0454H8.21151C10.0537 28.1326 14.9278 31.7677 20.6509 31.7677C26.374 31.7677 31.2481 28.1326 33.0903 23.0454H37.5227C35.5367 30.5046 28.7356 36 20.6509 36Z" fill="#404040"/>
<path d="M53.7149 28.46V15.116H48.6509V11.54H63.2429V15.116H58.1789V28.46H53.7149Z" fill="#404040"/>
<path d="M69.0629 28.46V11.54H81.0869V14.948H73.3589V18.164H80.6069V21.548H73.3589V25.052H81.0869V28.46H69.0629Z" fill="#404040"/>
<path d="M100.06 28.46L98.5483 24.956H91.0603L89.5483 28.46H85.1083L93.0043 11.54H96.5083L104.428 28.46H100.06ZM92.4763 21.644H97.1323L94.8043 16.22L92.4763 21.644Z" fill="#404040"/>
<path d="M123.11 11.54H126.518V28.46H122.678V19.58L119.414 25.652H116.582L113.342 19.724L113.318 28.46H109.478V11.54H112.958L118.046 21.164L123.11 11.54Z" fill="#404040"/>
<path d="M137.449 28.46V15.116H132.385V11.54H146.977V15.116H141.913V28.46H137.449Z" fill="#404040"/>
<path d="M163.482 28.46L161.97 24.956H154.482L152.97 28.46H148.53L156.426 11.54H159.93L167.85 28.46H163.482ZM155.898 21.644H160.554L158.226 16.22L155.898 21.644Z" fill="#404040"/>
<path d="M172.852 28.46V11.54H177.268V24.884H184.468V28.46H172.852Z" fill="#404040"/>
<path d="M207.05 28.46H201.818L195.002 20.804V28.46H190.586V11.54H195.002V18.812L201.626 11.54H206.786L199.322 19.58L207.05 28.46Z" fill="#404040"/>
</svg>
