<svg width="144" height="40" viewBox="0 0 144 40" fill="none" xmlns="http://www.w3.org/2000/svg">
<path d="M20 12L4 20V28M20 20L12 24" stroke="#404040" stroke-width="2" stroke-linejoin="round"/>
<path d="M20 28L4 20V28L20 36V28Z" stroke="#404040" stroke-width="2" stroke-linejoin="round"/>
<path d="M36 20V12L20 4V12L28 16" stroke="#404040" stroke-width="2" stroke-linejoin="round"/>
<path d="M20 20L36 12V20L20 28V20Z" stroke="#404040" stroke-width="2" stroke-linejoin="round"/>
<path d="M48 27.1261V8.64614H61.86V11.7541H51.864V16.3461H59.732V19.3141H51.864V24.0181H62.252V27.1261H48Z" fill="#404040"/>
<path d="M63.3268 33.0061V13.1261H66.7708L67.0228 17.5781L66.5467 17.0741C66.7147 16.2528 67.0227 15.5248 67.4707 14.8901C67.9374 14.2555 68.5254 13.7608 69.2347 13.4061C69.9441 13.0328 70.7374 12.8461 71.6147 12.8461C72.7534 12.8461 73.7708 13.1355 74.6668 13.7141C75.5628 14.2928 76.2628 15.1235 76.7668 16.2061C77.2894 17.2701 77.5508 18.5675 77.5508 20.0981C77.5508 21.6288 77.2894 22.9448 76.7668 24.0461C76.2441 25.1288 75.5254 25.9595 74.6108 26.5381C73.7148 27.1168 72.6881 27.4061 71.5308 27.4061C70.2987 27.4061 69.2721 27.0608 68.4508 26.3701C67.6481 25.6795 67.0974 24.8115 66.7988 23.7661L67.1628 23.1781V33.0061H63.3268ZM70.4108 24.4661C71.4374 24.4661 72.2401 24.1021 72.8187 23.3741C73.4161 22.6275 73.7148 21.5448 73.7148 20.1261C73.7148 18.7075 73.4254 17.6341 72.8468 16.9061C72.2868 16.1595 71.4934 15.7861 70.4668 15.7861C69.8134 15.7861 69.2348 15.9635 68.7308 16.3181C68.2454 16.6541 67.8627 17.1488 67.5827 17.8021C67.3027 18.4368 67.1628 19.2115 67.1628 20.1261C67.1628 21.0035 67.2934 21.7781 67.5547 22.4501C67.8161 23.1035 68.1894 23.6075 68.6748 23.9621C69.1788 24.2981 69.7574 24.4661 70.4108 24.4661Z" fill="#404040"/>
<path d="M80.8134 11.1101C80.0108 11.1101 79.4134 10.9421 79.0214 10.6061C78.6294 10.2515 78.4334 9.73814 78.4334 9.06614C78.4334 8.37547 78.6294 7.86214 79.0214 7.52614C79.4134 7.17147 80.0108 6.99414 80.8134 6.99414C81.6161 6.99414 82.2134 7.17147 82.6054 7.52614C82.9974 7.86214 83.1934 8.37547 83.1934 9.06614C83.1934 9.73814 82.9974 10.2515 82.6054 10.6061C82.2134 10.9421 81.6161 11.1101 80.8134 11.1101ZM82.7174 13.1261V27.1261H78.8814V13.1261H82.7174Z" fill="#404040"/>
<path d="M91.1398 12.8461C92.3904 12.8461 93.4451 13.0328 94.3038 13.4061C95.1811 13.7608 95.8811 14.2555 96.4038 14.8901C96.9451 15.5061 97.3278 16.1968 97.5518 16.9621L93.9678 18.2501C93.7811 17.4101 93.4638 16.7755 93.0158 16.3461C92.5678 15.9168 91.9611 15.7021 91.1958 15.7021C90.4864 15.7021 89.8798 15.8701 89.3758 16.2061C88.8718 16.5235 88.4891 17.0181 88.2278 17.6901C87.9664 18.3435 87.8358 19.1648 87.8358 20.1541C87.8358 21.1435 87.9664 21.9648 88.2278 22.6181C88.5078 23.2715 88.8998 23.7568 89.4038 24.0741C89.9264 24.3915 90.5331 24.5501 91.2238 24.5501C91.7838 24.5501 92.2598 24.4568 92.6518 24.2701C93.0438 24.0648 93.3611 23.7755 93.6038 23.4021C93.8651 23.0288 94.0424 22.5808 94.1358 22.0581L97.6078 23.1781C97.4024 24.0181 97.0198 24.7555 96.4598 25.3901C95.8998 26.0248 95.1811 26.5195 94.3038 26.8741C93.4264 27.2288 92.4091 27.4061 91.2518 27.4061C89.8144 27.4061 88.5451 27.1168 87.4438 26.5381C86.3424 25.9595 85.4931 25.1288 84.8958 24.0461C84.2984 22.9635 83.9998 21.6568 83.9998 20.1261C83.9998 18.5955 84.2984 17.2888 84.8958 16.2061C85.4931 15.1235 86.3331 14.2928 87.4158 13.7141C88.4984 13.1355 89.7398 12.8461 91.1398 12.8461Z" fill="#404040"/>
<path d="M106.12 8.64614C109.014 8.64614 111.254 9.44881 112.84 11.0541C114.427 12.6408 115.22 14.9181 115.22 17.8861C115.22 20.8355 114.427 23.1128 112.84 24.7181C111.254 26.3235 109.014 27.1261 106.12 27.1261H98.9805V8.64614H106.12ZM105.924 24.0461C107.679 24.0461 108.995 23.5235 109.872 22.4781C110.768 21.4141 111.216 19.8835 111.216 17.8861C111.216 15.8888 110.768 14.3675 109.872 13.3221C108.995 12.2581 107.679 11.7261 105.924 11.7261H102.844V24.0461H105.924Z" fill="#404040"/>
<path d="M123.209 27.4061C121.735 27.4061 120.447 27.1168 119.345 26.5381C118.263 25.9595 117.423 25.1288 116.825 24.0461C116.228 22.9635 115.929 21.6568 115.929 20.1261C115.929 18.5955 116.228 17.2888 116.825 16.2061C117.423 15.1235 118.253 14.2928 119.317 13.7141C120.4 13.1355 121.632 12.8461 123.013 12.8461C124.432 12.8461 125.636 13.1355 126.625 13.7141C127.615 14.2741 128.371 15.0488 128.893 16.0381C129.416 17.0088 129.677 18.1195 129.677 19.3701C129.677 19.7435 129.668 20.0981 129.649 20.4341C129.631 20.7701 129.603 21.0688 129.565 21.3301H118.393V18.6701H127.885L126.037 19.3421C126.037 18.1661 125.767 17.2608 125.225 16.6261C124.703 15.9915 123.956 15.6741 122.985 15.6741C122.276 15.6741 121.66 15.8421 121.137 16.1781C120.633 16.5141 120.251 17.0181 119.989 17.6901C119.728 18.3435 119.597 19.1741 119.597 20.1821C119.597 21.1715 119.737 21.9928 120.017 22.6461C120.316 23.2808 120.727 23.7568 121.249 24.0741C121.791 24.3915 122.435 24.5501 123.181 24.5501C124.003 24.5501 124.665 24.3915 125.169 24.0741C125.673 23.7568 126.065 23.3181 126.345 22.7581L129.397 23.9341C129.099 24.6621 128.641 25.2875 128.025 25.8101C127.428 26.3328 126.709 26.7341 125.869 27.0141C125.048 27.2755 124.161 27.4061 123.209 27.4061Z" fill="#404040"/>
<path d="M139.675 13.1261H143.651L138.331 27.1261H133.907L128.587 13.1261H132.703L136.147 24.1861L139.675 13.1261Z" fill="#404040"/>
</svg>
