<svg width="42" height="42" viewBox="0 0 42 42" fill="none" xmlns="http://www.w3.org/2000/svg">
<path d="M34.3333 38.7777C38.0152 38.7777 41 35.7929 41 32.111C41 28.4291 38.0152 25.4443 34.3333 25.4443C30.6514 25.4443 27.6666 28.4291 27.6666 32.111C27.6666 35.7929 30.6514 38.7777 34.3333 38.7777Z" fill="url(#paint0_linear_107_220)" stroke="url(#paint1_linear_107_220)" stroke-width="2" stroke-linecap="round" stroke-linejoin="round"/>
<path d="M41 1L14.3334 7.66667V16.5556L41 9.88889V1Z" fill="url(#paint2_linear_107_220)"/>
<path d="M14.3334 34.3333V16.5556M14.3334 16.5556V7.66667L41 1V9.88889M14.3334 16.5556L41 9.88889M41 32.1111V9.88889" stroke="url(#paint3_linear_107_220)" stroke-width="2" stroke-linecap="round" stroke-linejoin="round"/>
<path d="M7.66667 41.0001C11.3486 41.0001 14.3333 38.0153 14.3333 34.3334C14.3333 30.6515 11.3486 27.6667 7.66667 27.6667C3.98477 27.6667 1 30.6515 1 34.3334C1 38.0153 3.98477 41.0001 7.66667 41.0001Z" fill="url(#paint4_linear_107_220)" stroke="url(#paint5_linear_107_220)" stroke-width="2" stroke-linecap="round" stroke-linejoin="round"/>
<defs>
<linearGradient id="paint0_linear_107_220" x1="27.6666" y1="32.111" x2="41" y2="32.111" gradientUnits="userSpaceOnUse">
<stop stop-color="#FFFFFF"/>
<stop offset="1" stop-color="#FFFFFF"/>
</linearGradient>
<linearGradient id="paint1_linear_107_220" x1="27.6666" y1="32.111" x2="41" y2="32.111" gradientUnits="userSpaceOnUse">
<stop stop-color="#FFFFFF"/>
<stop offset="1" stop-color="#FFFFFF"/>
</linearGradient>
<linearGradient id="paint2_linear_107_220" x1="14.3334" y1="8.77778" x2="41" y2="8.77778" gradientUnits="userSpaceOnUse">
<stop stop-color="#FFFFFF"/>
<stop offset="1" stop-color="#FFFFFF"/>
</linearGradient>
<linearGradient id="paint3_linear_107_220" x1="14.3334" y1="17.6667" x2="41" y2="17.6667" gradientUnits="userSpaceOnUse">
<stop stop-color="#FFFFFF"/>
<stop offset="1" stop-color="#FFFFFF"/>
</linearGradient>
<linearGradient id="paint4_linear_107_220" x1="1" y1="34.3334" x2="14.3333" y2="34.3334" gradientUnits="userSpaceOnUse">
<stop stop-color="#FFFFFF"/>
<stop offset="1" stop-color="#FFFFFF"/>
</linearGradient>
<linearGradient id="paint5_linear_107_220" x1="1" y1="34.3334" x2="14.3333" y2="34.3334" gradientUnits="userSpaceOnUse">
<stop stop-color="#FFFFFF"/>
<stop offset="1" stop-color="#FFFFFF"/>
</linearGradient>
</defs>
</svg>
